<svg id="svg" version="1.1" viewBox="0 0 300 300" width="300" height="300" xmlns="http://www.w3.org/2000/svg"><svg xmlns="http://www.w3.org/2000/svg"><defs><clipPath id="clip-1"><rect x="0" y="0" transform="scale(0.14648,0.14648)" width="2048" height="2048" fill="none"/></clipPath></defs><g clip-path="url(#clip-1)" fill="none" fill-rule="nonzero" stroke="none" stroke-width="1" stroke-linecap="butt" stroke-linejoin="miter" stroke-miterlimit="10" stroke-dasharray="" stroke-dashoffset="0" font-family="none" font-weight="none" font-size="none" text-anchor="none" style="mix-blend-mode: normal"><path d="M0,0h300v300h-300z" fill="#000000"/><path d="M144.30542,94.12515c9.63354,-0.45264 19.23267,1.45313 27.96313,5.55161c14.34814,6.66064 25.07227,18.00029 30.52441,32.89453c5.43604,14.95166 4.77393,31.44287 -1.84424,45.90967c-5.63818,11.96338 -15.03076,21.75439 -26.74951,27.88184c-3.16846,1.65088 -5.84766,2.66309 -9.19336,3.88037c-1.22754,-1.5249 -2.48877,-3.02344 -3.78223,-4.49414c6.64307,-2.34668 13.73438,-7.31543 18.58887,-12.36621c9.79395,-10.00488 15.10693,-23.55615 14.72021,-37.5498c-0.52148,-8.30713 -2.25293,-15.29707 -6.18018,-22.71504c-6.56543,-12.40415 -17.75391,-21.72114 -31.14258,-25.93154c-12.99712,-3.9832 -27.04687,-2.61299 -39.03003,3.8064c-9.20669,4.94077 -16.70098,12.55415 -21.49644,21.8373c-1.01997,1.98179 -1.88789,3.73887 -2.54546,5.87974c-1.66831,-5.06602 -3.51196,-10.13218 -5.18452,-15.19966c-0.89487,-2.71099 -2.10718,-5.83345 -2.70674,-8.57886c1.63374,2.30669 2.1498,4.61147 4.38882,6.7626c3.87231,3.71982 5.7772,-0.12979 7.89448,-3.04233c0.96797,-1.32627 1.99409,-2.60903 3.07559,-3.84434c11.18071,-12.74619 25.90049,-19.57412 42.69976,-20.68213z" fill="#fefefe"/><path d="M173.42725,121.54482c0.84814,0.29033 4.30957,4.13804 5.05078,5.01182c-9.50977,10.56621 -19.5249,21.03369 -29.15625,31.53516l-7.39526,7.99072c-2.96543,3.22852 -5.53594,5.39209 -6.16919,9.97412c-0.35273,2.47705 0.05947,5.00098 1.18169,7.23633c1.21377,2.35986 5.83433,7.4458 7.7521,9.75439l16.63945,19.83838c2.45068,2.92236 5.63379,6.46143 7.86182,9.42334c-8.38916,-7.22314 -17.18994,-14.40527 -25.69248,-21.53174l-8.31255,-6.96973c-3.32666,-2.78906 -5.83535,-5.47705 -10.37988,-5.95898c-5.51719,-0.58447 -8.59321,2.22656 -12.65698,5.40088c-1.31924,-0.83057 -4.30854,-4.08691 -5.41128,-5.31445c2.50767,-3.5625 5.02808,-5.73779 5.4479,-10.36816c0.20845,-2.45068 -0.32974,-4.90576 -1.54351,-7.04443c-1.00371,-1.7666 -2.88867,-3.86133 -4.23457,-5.45947l-6.02593,-7.16895l-22.52505,-26.92749c1.05718,0.70796 2.6061,2.11128 3.64233,2.9874l5.84971,4.91411l19.88174,16.68662c1.94502,1.63477 7.09453,6.17285 8.96455,7.24658c1.66318,0.93604 3.52471,1.46338 5.43149,1.53955c2.50049,0.1333 4.98164,-0.50537 7.1083,-1.82666c1.78682,-1.12354 3.32329,-2.73486 4.88423,-4.1543c13.35322,-12.13799 26.3918,-24.75542 39.80684,-36.81504z" fill="#fefefe"/><path d="M87.2127,149.35107c0.51841,0.33398 3.06035,3.52148 3.61025,4.19092c-0.06504,1.62451 -0.0813,3.24902 -0.04878,4.87354c0.40781,13.94824 6.38145,27.15527 16.58833,36.6709c8.38315,7.91162 19.16191,12.80713 30.6356,13.91309c2.97817,0.27979 5.36279,0.21826 8.34243,0.1333c1.07549,0.81152 3.5877,2.84619 4.48711,3.77051c-2.18262,0.12744 -4.76045,0.11426 -6.93823,0.01465c-15.9167,-0.7207 -30.88066,-7.79004 -41.54648,-19.62598c-11.37495,-12.49365 -15.91992,-27.26807 -15.13022,-43.94092z" fill="#fefefe"/><path d="M239.23242,60.65288l0.03076,0.20347c-1.20264,1.44141 -3.07471,3.29106 -4.40479,4.72603l-9.6709,10.47378l-31.16309,33.70122c-0.49072,-0.55649 -1.19531,-1.2416 -1.72559,-1.78564c-0.67236,-0.66108 -1.39893,-1.31206 -2.09473,-1.95161c16.11914,-15.23774 32.81689,-30.18501 49.02832,-45.36724z" fill="#fefefe"/><path d="M99.69888,197.16943c0.69023,0.58447 2.4479,2.42139 3.15981,3.12891c-2.1479,1.62305 -5.21689,4.40918 -7.30869,6.19922c-3.97192,3.39697 -8.05181,6.81592 -11.96572,10.26123l-1.98545,1.74463c0.5896,-0.98291 4.51406,-5.42578 5.55952,-6.646z" fill="#fefefe"/></g></svg></svg>